<svg width="51" height="44" viewBox="0 0 51 44" fill="none" xmlns="http://www.w3.org/2000/svg">
<g clip-path="url(#clip0)">
<path d="M10.9375 29.3438V20.9062L6.71875 1.21875H46.2812C48.6076 1.21875 50.5 3.11119 50.5 5.4375V33.5625C50.5 35.8888 48.6076 37.7812 46.2812 37.7812H6.71875L10.9375 29.3438Z" fill="#EDF5FF"/>
<path d="M46.2812 1.21875H27.9062V37.7812H46.2812C48.6076 37.7812 50.5 35.8888 50.5 33.5625V5.4375C50.5 3.11119 48.6076 1.21875 46.2812 1.21875Z" fill="#D5E8FE"/>
<path d="M26.5 32.1562H16.6562C15.879 32.1562 15.25 31.5273 15.25 30.75V19.5C15.25 18.7227 15.879 18.0938 16.6562 18.0938H26.5C27.2773 18.0938 27.9062 18.7227 27.9062 19.5V30.75C27.9062 31.5273 27.2773 32.1562 26.5 32.1562Z" fill="#80BFFF"/>
<path d="M10.9375 20.9062H3.90625C3.12962 20.9062 2.5 20.2766 2.5 19.5V5.4375C2.5 3.11119 4.39244 1.21875 6.71875 1.21875C9.04506 1.21875 10.9375 3.11119 10.9375 5.4375V20.9062Z" fill="#D5E8FE"/>
<path d="M6.71875 37.7812C4.39244 37.7812 2.5 35.8888 2.5 33.5625V30.75C2.5 29.9734 3.12962 29.3438 3.90625 29.3438H10.9375V33.5625C10.9375 35.8888 9.04506 37.7812 6.71875 37.7812Z" fill="#D5E8FE"/>
<path d="M46.1875 15.2812H16.6562C15.879 15.2812 15.25 14.6523 15.25 13.875V8.25C15.25 7.47272 15.879 6.84375 16.6562 6.84375H46.1875C46.9648 6.84375 47.5938 7.47272 47.5938 8.25V13.875C47.5938 14.6523 46.9648 15.2812 46.1875 15.2812Z" fill="#80BFFF"/>
<path d="M46.1875 6.84375H27.9062V15.2812H46.1875C46.9648 15.2812 47.5938 14.6523 47.5938 13.875V8.25C47.5938 7.47272 46.9648 6.84375 46.1875 6.84375Z" fill="#6699FF"/>
<path d="M46.1875 20.9062H32.125C31.3477 20.9062 30.7188 20.2773 30.7188 19.5C30.7188 18.7227 31.3477 18.0938 32.125 18.0938H46.1875C46.9648 18.0938 47.5938 18.7227 47.5938 19.5C47.5938 20.2773 46.9648 20.9062 46.1875 20.9062Z" fill="#6699FF"/>
<path d="M46.1875 26.5312H32.125C31.3477 26.5312 30.7188 25.9023 30.7188 25.125C30.7188 24.3477 31.3477 23.7188 32.125 23.7188H46.1875C46.9648 23.7188 47.5938 24.3477 47.5938 25.125C47.5938 25.9023 46.9648 26.5312 46.1875 26.5312Z" fill="#6699FF"/>
<path d="M46.1875 32.1562H32.125C31.3477 32.1562 30.7188 31.5273 30.7188 30.75C30.7188 29.9727 31.3477 29.3438 32.125 29.3438H46.1875C46.9648 29.3438 47.5938 29.9727 47.5938 30.75C47.5938 31.5273 46.9648 32.1562 46.1875 32.1562Z" fill="#6699FF"/>
<g clip-path="url(#clip1)">
<path d="M3.69392 25.1939C4.32206 24.5658 5.34414 24.5658 5.97228 25.1939L9.16192 28.3836C9.162 28.3837 9.51145 30.5558 9.51145 30.5558L11.6835 30.9052C12.5414 29.1088 12.2268 26.8922 10.7389 25.4043L8.25058 22.9156C6.36313 21.0282 3.30298 21.0282 1.41553 22.9156L1.64335 24.9662L3.69392 25.1939Z" fill="#BDCCDD"/>
<path d="M3.69394 27.4723C3.06581 26.8441 3.06581 25.822 3.69394 25.1939L1.41559 22.9156C-0.471863 24.803 -0.471863 27.8632 1.41559 29.7506L3.90389 32.2393C5.39193 33.7273 7.60876 34.0419 9.40531 33.1836L9.05582 31.0114L6.88367 30.6619L3.69394 27.4723Z" fill="#E5E5E5"/>
<path d="M18.306 39.8061C18.9341 39.178 18.9341 38.1559 18.306 37.5277L15.1163 34.3381C15.1162 34.338 12.9441 33.9886 12.9441 33.9886L12.5947 31.8165C14.3911 30.9586 16.6077 31.2732 18.0956 32.7611L20.5843 35.2494C22.4717 37.1369 22.4717 40.197 20.5843 42.0845L18.5337 41.8567L18.306 39.8061Z" fill="#BDCCDD"/>
<path d="M16.0276 39.8061C16.6557 40.4342 17.6778 40.4342 18.306 39.8061L20.5843 42.0844C18.6969 43.9719 15.6367 43.9719 13.7492 42.0844L11.2606 39.5961C9.77252 38.1081 9.45796 35.8912 10.3163 34.0947L12.4884 34.4442L12.8379 36.6163L16.0276 39.8061Z" fill="#E5E5E5"/>
<path d="M9.16181 28.3835C8.53364 27.7554 7.51163 27.7554 6.88354 28.3836L10.0886 33.4113L15.1163 36.6162C15.7444 35.9881 15.7444 34.966 15.1163 34.3379L9.16181 28.3835Z" fill="#E5E5E5"/>
<path d="M6.88373 30.662L12.8381 36.6163C13.4662 37.2445 14.4883 37.2445 15.1164 36.6163L6.88373 28.3836C6.25555 29.0118 6.25555 30.0338 6.88373 30.662V30.662Z" fill="#BDCCDD"/>
</g>
</g>
<defs>
<clipPath id="clip0">
<rect width="51" height="43" fill="white" transform="translate(0 0.5)"/>
</clipPath>
<clipPath id="clip1">
<rect width="22" height="22" fill="white" transform="translate(0 43.5) rotate(-90)"/>
</clipPath>
</defs>
</svg>
