<svg width="49" height="48" viewBox="0 0 49 48" fill="none" xmlns="http://www.w3.org/2000/svg">
<g clip-path="url(#clip0)">
<path d="M23.7563 7.57507H23.7648L38.7601 3.55307C39.6444 3.32016 40.5504 3.8453 40.7877 4.72821L42.9231 12.7059L43.8913 16.3226V16.331L48.4428 33.2961C48.6798 34.1779 48.1576 35.0853 47.2758 35.3234L38.1478 37.7648L23.7563 7.57507Z" fill="#D5E8FE"/>
<path d="M9.83681 4.414C10.2261 4.1529 10.7095 4.07417 11.161 4.19868L43.1382 12.7642C44.02 13.0022 44.5422 13.9096 44.3053 14.7915L35.7398 46.7686C35.5018 47.6505 34.5943 48.1727 33.7121 47.9357L1.73494 39.3703C0.853126 39.1322 0.33092 38.2248 0.56822 37.3426L7.45357 11.6385L9.83681 4.414Z" fill="#EDF5FF"/>
<path d="M37.9278 18.6231C37.8553 18.6234 37.7835 18.6139 37.7136 18.5952L25.942 15.4444C25.5007 15.3261 25.2385 14.8724 25.3572 14.4308C25.4754 13.9891 25.9292 13.7273 26.3708 13.8456L38.142 17.0004C38.5434 17.1077 38.8027 17.4959 38.7488 17.9075C38.6946 18.3191 38.3438 18.6271 37.9285 18.6274L37.9278 18.6231Z" fill="#80BFFF"/>
<path d="M36.6419 23.4232C36.5698 23.4232 36.4976 23.4137 36.4277 23.395L28.425 21.2538C28.1383 21.1788 27.9135 20.9558 27.8362 20.6694C27.7589 20.383 27.841 20.0772 28.0508 19.8678C28.2606 19.6583 28.5668 19.577 28.8528 19.655L36.8554 21.7962C37.2567 21.9035 37.516 22.2913 37.4622 22.7033C37.408 23.1149 37.0572 23.4229 36.6419 23.4232Z" fill="#80BFFF"/>
<path d="M35.3601 28.223C35.2872 28.223 35.2151 28.2135 35.1448 28.1948L25.1892 25.5227C24.7475 25.404 24.4861 24.9499 24.6044 24.5083C24.723 24.067 25.1771 23.8052 25.6187 23.9238L35.5744 26.596C35.9757 26.7033 36.235 27.0915 36.1808 27.5035C36.1266 27.9154 35.7754 28.223 35.3601 28.223V28.223Z" fill="#80BFFF"/>
<path d="M10.8912 26.8045C10.8187 26.8048 10.7462 26.7953 10.6763 26.7766L8.27612 26.1335C7.83484 26.0149 7.573 25.5608 7.69165 25.1191C7.80994 24.6779 8.26404 24.416 8.70569 24.5347L11.1058 25.1774C11.5068 25.285 11.7665 25.6732 11.7123 26.0852C11.6581 26.4968 11.3069 26.8048 10.8912 26.8045V26.8045Z" fill="#80BFFF"/>
<path d="M34.0722 33.0155C34 33.0155 33.9279 33.006 33.8579 32.9873L15.4727 28.0575C15.0311 27.9392 14.7693 27.4851 14.8875 27.0435C15.0058 26.6022 15.4599 26.34 15.9016 26.4587L34.2868 31.3841C34.6877 31.4918 34.9474 31.8796 34.8932 32.2916C34.839 32.7032 34.4885 33.0112 34.0733 33.0112L34.0722 33.0155Z" fill="#80BFFF"/>
<path d="M9.60544 31.6002C9.53293 31.6006 9.46078 31.5911 9.39084 31.572L6.99106 30.9301C6.54941 30.8118 6.28757 30.3577 6.40585 29.916C6.52414 29.4747 6.97824 29.2125 7.41952 29.3312L9.81967 29.9732C10.221 30.0808 10.4803 30.469 10.4261 30.881C10.3719 31.2926 10.0207 31.6006 9.60544 31.6002V31.6002Z" fill="#80BFFF"/>
<path d="M32.788 37.8121C32.7155 37.8121 32.6437 37.8026 32.5738 37.7839L14.1874 32.8574C13.9018 32.7808 13.6788 32.5578 13.6022 32.2722C13.5261 31.9865 13.6077 31.6815 13.8168 31.4727C14.0259 31.2636 14.3306 31.182 14.6162 31.2585L33.0015 36.185C33.4025 36.2923 33.6621 36.6805 33.6079 37.0921C33.5541 37.5037 33.2033 37.8117 32.788 37.8121V37.8121Z" fill="#80BFFF"/>
<path d="M24.4764 25.0287L19.0229 23.2079L23.707 18.5238L25.5274 23.9777C25.6252 24.2758 25.5465 24.6039 25.3246 24.8258C25.1026 25.0477 24.7749 25.1261 24.4764 25.0287V25.0287Z" fill="#BDC3C7"/>
<path d="M8.49604 3.31321L3.81194 7.99731L1.47007 5.65507C0.176643 4.36164 0.176643 2.26477 1.47007 0.971338C2.7635 -0.322457 4.86074 -0.322457 6.15417 0.971338L8.49604 3.31321Z" fill="#90BAE4"/>
<path d="M23.7069 18.5238L21.9524 20.2783V20.2867L20.7853 21.4534H20.7773L19.0228 23.2079L6.15405 10.3392L7.91659 8.58468L9.08368 7.41796L10.8382 5.65506L23.7069 18.5238Z" fill="#6699FF"/>
<path d="M3.81274 7.9973L8.49648 3.3132L10.8383 5.65544L6.15461 10.3392L3.81274 7.9973Z" fill="#BDC3C7"/>
<path d="M12.005 11.5063C11.8476 11.6593 11.637 11.7454 11.4177 11.7461C11.2005 11.745 10.9925 11.659 10.8383 11.5063L7.91675 8.58469L9.08384 7.41797L12.005 10.3392C12.3258 10.6622 12.3258 11.1833 12.005 11.5063Z" fill="#5B83D3"/>
<path d="M21.9526 20.2783V20.2867L20.7855 21.4534H20.7775L13.1722 13.8481C12.962 13.6383 12.8799 13.3321 12.9568 13.0454C13.0337 12.7587 13.2578 12.5346 13.5446 12.458C13.8313 12.3811 14.1371 12.4631 14.3473 12.673L21.9526 20.2783Z" fill="#5B83D3"/>
</g>
<defs>
<clipPath id="clip0">
<rect width="48" height="48" fill="white" transform="translate(0.5)"/>
</clipPath>
</defs>
</svg>
